<svg width="134" height="52" viewBox="0 0 134 52" fill="none" xmlns="http://www.w3.org/2000/svg">
<g clip-path="url(#clip0_1_33)">
<path d="M79.0917 9.70406C78.6477 9.28433 77.7153 8.59478 76.9605 8.33994C75.5268 7.82961 73.9749 7.76694 72.5056 8.16006C71.9072 8.31616 71.334 8.55848 70.8036 8.87959C69.652 9.57877 68.6906 10.5577 68.0064 11.7278C67.2872 12.9725 66.9187 14.3931 66.9408 15.8351C66.9251 17.0795 67.1936 18.3108 67.7252 19.4328C67.814 19.6127 67.9028 19.7776 67.9916 19.9275C68.4833 20.7654 69.12 21.5067 69.8712 22.1161C70.1672 22.3559 70.478 22.5658 70.774 22.7606C71.9246 23.4216 73.2253 23.7678 74.548 23.765C76.2501 23.765 77.7301 23.2403 78.9585 22.221L79.0029 22.191V22.9105C79.016 23.6492 78.9565 24.3874 78.8253 25.1141L78.8105 25.1591C78.8105 25.1891 78.7957 25.2191 78.7957 25.249C78.6806 25.7899 78.4754 26.307 78.1889 26.778C77.4637 27.9173 76.2649 28.4869 74.6072 28.4869H74.5184C74.1265 28.4844 73.7355 28.4494 73.3492 28.382C73.0633 28.3261 72.785 28.2355 72.5204 28.1122C71.967 27.8663 71.4686 27.5093 71.0552 27.0629C70.645 26.6001 70.3192 26.0671 70.0932 25.4889C70.0471 25.3713 70.0076 25.2512 69.9748 25.1291L69.96 25.0991H66.7484L66.7632 25.1591C66.86 25.6989 67.0138 26.2266 67.222 26.7331C67.3589 27.0679 67.5171 27.3934 67.6956 27.7074C68.0128 28.266 68.4009 28.78 68.85 29.2365C69.5525 29.9498 70.3875 30.5154 71.3068 30.9004C71.3683 30.9318 71.4328 30.957 71.4992 30.9753L71.5436 30.9903C72.4536 31.3291 73.4157 31.5017 74.3852 31.5H74.7108C76.1908 31.5 77.5081 31.1702 78.6181 30.5106C79.7223 29.8521 80.6202 28.8907 81.2081 27.7374C81.4581 27.2155 81.6517 26.6676 81.7853 26.1035C81.8149 25.9536 81.8593 25.8037 81.8889 25.6538C82.0507 24.6984 82.125 23.7299 82.1109 22.7606V8.23501H79.0917V9.70406ZM79.0029 18.6383C78.6432 19.1358 78.1968 19.5625 77.6857 19.8975C77.5181 20.0062 77.3452 20.1063 77.1677 20.1973C76.4822 20.5597 75.7208 20.7499 74.9476 20.7519C74.2706 20.7599 73.5996 20.6219 72.9792 20.3472C72.4746 20.1263 72.0096 19.8224 71.6028 19.4478L71.5436 19.3878C71.501 19.3566 71.4614 19.3215 71.4252 19.2829C70.9856 18.8374 70.6384 18.3073 70.404 17.7239C70.2938 17.4529 70.2096 17.1718 70.1524 16.8844C70.0765 16.5297 70.0368 16.1681 70.034 15.8051C70.0326 15.1646 70.148 14.5294 70.3744 13.9313C70.5928 13.3492 70.9194 12.8149 71.3364 12.3573C71.7548 11.8958 72.264 11.5281 72.8312 11.278C73.446 11.0019 74.1124 10.8638 74.7848 10.8733C75.6353 10.8653 76.4744 11.0714 77.2269 11.4729C77.9082 11.8529 78.5071 12.3678 78.9881 12.9869V18.6383H79.0029ZM9.25006 0.814797L0 23.4352H3.40402L5.72763 17.6489H15.0221L17.3753 23.4352H20.7941L11.5441 0.814797H9.25006ZM7.04484 14.486L10.3897 6.31625L13.7345 14.486H7.04484ZM32.8118 21.8612L33.4482 23.4352H35.831V8.22002H32.7082V18.6383C32.2223 19.2031 31.6532 19.6886 31.021 20.0774C30.2886 20.5385 29.4413 20.7777 28.579 20.7669C28.0282 20.767 27.4836 20.6495 26.9806 20.4221C26.4984 20.2038 26.0691 19.8815 25.7226 19.4778C25.4436 19.1374 25.2325 18.7454 25.101 18.3235C24.9344 17.7291 24.8595 17.1122 24.8789 16.4947V8.23501H21.7561V16C21.7561 17.2892 21.8745 18.3385 22.0965 19.133C22.2992 19.8868 22.6517 20.5907 23.1325 21.2016C23.7534 22 24.5488 22.6415 25.4562 23.0754C26.3991 23.5292 27.4315 23.7599 28.4754 23.75C28.9741 23.7512 29.4711 23.6907 29.9554 23.5701C30.3881 23.4685 30.8096 23.3229 31.2134 23.1354C32.131 22.6857 32.6934 22.0561 32.8118 21.8612ZM47.3159 7.89023C46.2059 7.89023 45.2587 8.11509 44.5039 8.53482C43.8892 8.86169 43.3416 9.30432 42.8907 9.83897V8.20503H39.8714V23.4202H42.9943V13.3767C43.4155 12.6501 44.0047 12.0379 44.7111 11.5928C45.3798 11.1332 46.1673 10.8829 46.9755 10.8733C47.2829 10.8729 47.5898 10.8979 47.8931 10.9483V7.89023H47.3159ZM61.08 9.70406C60.5324 9.19439 59.7036 8.59478 58.9487 8.33994C57.5151 7.82961 55.9632 7.76694 54.4939 8.16006C53.8955 8.31616 53.3223 8.55848 52.7919 8.87959C51.6403 9.57877 50.6789 10.5577 49.9947 11.7278C49.2755 12.9725 48.907 14.3931 48.9291 15.8351C48.9053 17.2706 49.2686 18.6855 49.9799 19.9275C50.6549 21.0957 51.6125 22.0707 52.7623 22.7606C53.9129 23.4216 55.2136 23.7678 56.5363 23.765C57.3989 23.7757 58.2563 23.6284 59.0672 23.3303C59.8504 23.021 60.5466 22.5217 61.0948 21.8762L61.7312 23.4502H64.114V8.22002H61.0948L61.08 9.70406ZM60.9764 18.6383C60.4957 19.2984 59.8666 19.8328 59.1412 20.1973C58.4557 20.5597 57.6943 20.7499 56.9211 20.7519C56.2441 20.7599 55.5731 20.6219 54.9527 20.3472C54.3756 20.0902 53.8492 19.7296 53.3987 19.2829C52.9591 18.8374 52.6119 18.3073 52.3775 17.7239C52.1378 17.1188 52.0171 16.4721 52.0223 15.8201C52.0208 15.1796 52.1362 14.5443 52.3627 13.9463C52.5811 13.3642 52.9076 12.8299 53.3247 12.3723C53.7391 11.9062 54.2493 11.5378 54.8195 11.293C55.4342 11.0169 56.1007 10.8788 56.7731 10.8883C57.6236 10.8803 58.4627 11.0864 59.2152 11.4879C59.8965 11.8679 60.4954 12.3828 60.9764 13.0019V18.6383ZM85.6481 0.5H88.7709V23.4352H85.6481V0.5ZM130.774 8.22002L126.718 18.4434L122.663 8.25V8.22002H120.488L116.432 18.4434L112.377 8.25L112.362 8.22002H109.151L115.248 23.4352H117.424L121.568 12.912L125.712 23.4052L125.727 23.4352H127.902L134 8.22002H130.774Z" fill="black"/>
</g>
<g clip-path="url(#clip1_1_33)">
<path d="M99.5 19.9469C98.0166 19.9469 96.5666 20.3898 95.3332 21.2197C94.0998 22.0496 93.1385 23.2291 92.5709 24.6091C92.0032 25.9891 91.8547 27.5077 92.1441 28.9727C92.4335 30.4377 93.1478 31.7834 94.1967 32.8396C95.2456 33.8958 96.5819 34.6151 98.0368 34.9065C99.4917 35.1979 101 35.0484 102.37 34.4768C103.741 33.9051 104.912 32.9371 105.736 31.6952C106.56 30.4532 107 28.993 107 27.4993C106.998 25.497 106.207 23.5773 104.801 22.1615C103.395 20.7456 101.488 19.9492 99.5 19.9469ZM99.5 32.2321C98.5704 32.2321 97.6617 31.9545 96.8888 31.4345C96.1159 30.9144 95.5135 30.1753 95.1577 29.3105C94.802 28.4456 94.7089 27.494 94.8903 26.576C95.0716 25.6579 95.5193 24.8146 96.1766 24.1527C96.8339 23.4908 97.6713 23.04 98.583 22.8574C99.4948 22.6748 100.44 22.7685 101.299 23.1267C102.157 23.4849 102.891 24.0916 103.408 24.8699C103.924 25.6482 104.2 26.5632 104.2 27.4993C104.196 28.7533 103.7 29.9549 102.819 30.8417C101.939 31.7285 100.745 32.2283 99.5 32.2321ZM99.5 36.3953C98.0166 36.3953 96.5666 36.8382 95.3332 37.6681C94.0998 38.4979 93.1385 39.6774 92.5709 41.0575C92.0032 42.4375 91.8547 43.956 92.1441 45.421C92.4335 46.886 93.1478 48.2317 94.1967 49.288C95.2456 50.3442 96.5819 51.0635 98.0368 51.3549C99.4917 51.6463 101 51.4967 102.37 50.9251C103.741 50.3535 104.912 49.3855 105.736 48.1435C106.56 46.9015 107 45.4413 107 43.9476C106.998 41.9453 106.207 40.0257 104.801 38.6098C103.395 37.194 101.488 36.3975 99.5 36.3953ZM99.5 48.6805C98.5704 48.6805 97.6617 48.4029 96.8888 47.8828C96.1159 47.3628 95.5135 46.6236 95.1577 45.7588C94.802 44.894 94.7089 43.9424 94.8903 43.0243C95.0716 42.1062 95.5193 41.2629 96.1766 40.601C96.8339 39.9391 97.6713 39.4884 98.583 39.3057C99.4948 39.1231 100.44 39.2169 101.299 39.5751C102.157 39.9333 102.891 40.5399 103.408 41.3182C103.924 42.0965 104.2 43.0116 104.2 43.9476C104.196 45.2017 103.7 46.4033 102.819 47.29C101.939 48.1768 100.745 48.6767 99.5 48.6805ZM99.5 3.5C98.0166 3.5 96.5666 3.94294 95.3332 4.7728C94.0998 5.60267 93.1385 6.78219 92.5709 8.1622C92.0032 9.54222 91.8547 11.0608 92.1441 12.5258C92.4335 13.9908 93.1478 15.3365 94.1967 16.3927C95.2456 17.4489 96.5819 18.1682 98.0368 18.4596C99.4917 18.751 101 18.6015 102.37 18.0299C103.741 17.4582 104.912 16.4902 105.736 15.2482C106.56 14.0063 107 12.5461 107 11.0524C106.998 9.05006 106.207 7.13041 104.801 5.71456C103.395 4.29871 101.488 3.50228 99.5 3.5V3.5ZM99.5 15.7852C98.5704 15.7852 97.6617 15.5076 96.8888 14.9876C96.1159 14.4675 95.5135 13.7284 95.1577 12.8635C94.802 11.9987 94.7089 11.0471 94.8903 10.129C95.0716 9.21097 95.5193 8.36766 96.1766 7.70576C96.8339 7.04387 97.6713 6.59311 98.583 6.41049C99.4948 6.22788 100.44 6.3216 101.299 6.67982C102.157 7.03803 102.891 7.64465 103.408 8.42296C103.924 9.20127 104.2 10.1163 104.2 11.0524C104.196 12.3064 103.7 13.508 102.819 14.3948C101.939 15.2815 100.745 15.7814 99.5 15.7852Z" fill="black"/>
</g>
<defs>
<clipPath id="clip0_1_33">
<rect width="134" height="31" fill="white" transform="translate(0 0.5)"/>
</clipPath>
<clipPath id="clip1_1_33">
<rect width="15" height="48" fill="white" transform="translate(92 3.5)"/>
</clipPath>
</defs>
</svg>
